# xmcd CD database file
#
# Track frame offsets:
#	150
#	12942
#	31074
#	56872
#	73771
#	94080
#	115677
#	130645
#	143549
#	161213
#	183737
#	202904
#
# Disc length: 2950 seconds
#
# Revision: 1
# Processed by: cddbd v1.5.2PL0 Copyright (c) Steve Scherf et al.
# Submitted via: CDex 1.70beta2
#
DISCID=a10b840c
DTITLE=Jazzkantine - Hells Kitchen
DYEAR=2008
DGENRE=Jazz
TTITLE0=Highway To Hell
TTITLE1=Jump
TTITLE2=Nothing Else Matters
TTITLE3=Iron Horses
TTITLE4=Ain't Talkin' 'Bout Love
TTITLE5=Back In Black
TTITLE6=Smoke On The Water
TTITLE7=Paranoid
TTITLE8=I Was Made For Loving You
TTITLE9=Walk This Way
TTITLE10=Strong Arm Of The Law
TTITLE11=Hell's Bells
EXTD=YEAR: 2008
EXTT0=
EXTT1=
EXTT2=
EXTT3=
EXTT4=
EXTT5=
EXTT6=
EXTT7=
EXTT8=
EXTT9=
EXTT10=
EXTT11=
PLAYORDER=
